<svg width="513" height="512" viewBox="0 0 513 512" fill="none" xmlns="http://www.w3.org/2000/svg">
<path d="M256.491 2.00001C398.147 2.00001 512.982 116.167 512.982 257C512.982 397.833 398.147 512 256.491 512C114.835 512 0 397.833 0 257C0 116.167 114.835 2.00001 256.491 2.00001Z" fill="#111827"/>
<path d="M64.0288 305.25C56.6955 305.25 50.2788 303.792 44.7788 300.875C39.3621 297.958 35.1538 293.958 32.1538 288.875C29.2371 283.708 27.7788 277.833 27.7788 271.25C27.7788 266.083 28.6121 261.375 30.2788 257.125C31.9455 252.792 34.2788 249.083 37.2788 246C40.3621 242.917 43.9455 240.542 48.0288 238.875C52.1955 237.125 56.7371 236.25 61.6538 236.25C66.3205 236.25 70.5705 237.083 74.4038 238.75C78.2371 240.417 81.5705 242.75 84.4038 245.75C87.2371 248.75 89.4038 252.292 90.9038 256.375C92.4038 260.458 93.1121 264.917 93.0288 269.75L92.9038 275.25H40.1538L37.1538 263.875H76.5288L74.4038 266.125V263.625C74.2371 261.542 73.5705 259.75 72.4038 258.25C71.3205 256.667 69.8621 255.417 68.0288 254.5C66.2788 253.583 64.2788 253.125 62.0288 253.125C58.6955 253.125 55.8621 253.792 53.5288 255.125C51.2788 256.375 49.5705 258.208 48.4038 260.625C47.2371 263.042 46.6538 266.042 46.6538 269.625C46.6538 273.208 47.4038 276.375 48.9038 279.125C50.4871 281.875 52.7371 284 55.6538 285.5C58.6538 287 62.1955 287.75 66.2788 287.75C69.0288 287.75 71.5288 287.333 73.7788 286.5C76.0288 285.667 78.4455 284.25 81.0288 282.25L90.4038 295.5C87.8205 297.667 85.0705 299.5 82.1538 301C79.2371 302.417 76.2371 303.458 73.1538 304.125C70.1538 304.875 67.1121 305.25 64.0288 305.25ZM111.268 304V220.875H131.393V304H111.268ZM99.5181 255.25V237.625H144.143V255.25H99.5181ZM186.209 305.25C179.376 305.25 173.251 303.792 167.834 300.875C162.418 297.875 158.168 293.792 155.084 288.625C152.001 283.375 150.459 277.458 150.459 270.875C150.459 264.125 152.001 258.167 155.084 253C158.168 247.75 162.418 243.667 167.834 240.75C173.251 237.75 179.376 236.25 186.209 236.25C193.126 236.25 199.251 237.75 204.584 240.75C210.001 243.667 214.251 247.75 217.334 253C220.418 258.167 221.959 264.125 221.959 270.875C221.959 277.458 220.418 283.375 217.334 288.625C214.251 293.792 210.001 297.875 204.584 300.875C199.251 303.792 193.126 305.25 186.209 305.25ZM186.209 288C189.209 288 191.834 287.25 194.084 285.75C196.418 284.25 198.251 282.208 199.584 279.625C200.918 277.042 201.543 274.125 201.459 270.875C201.543 267.458 200.918 264.458 199.584 261.875C198.251 259.208 196.418 257.167 194.084 255.75C191.834 254.25 189.209 253.5 186.209 253.5C183.293 253.5 180.668 254.25 178.334 255.75C176.001 257.25 174.168 259.292 172.834 261.875C171.501 264.458 170.834 267.458 170.834 270.875C170.834 274.125 171.501 277.042 172.834 279.625C174.168 282.208 176.001 284.25 178.334 285.75C180.668 287.25 183.293 288 186.209 288Z" fill="white"/>
<path d="M237.041 304V216.5H274.916C280.416 216.5 285.332 217.75 289.666 220.25C293.999 222.75 297.416 226.167 299.916 230.5C302.416 234.75 303.666 239.625 303.666 245.125C303.666 250.708 302.416 255.75 299.916 260.25C297.416 264.75 293.999 268.292 289.666 270.875C285.332 273.458 280.416 274.75 274.916 274.75H258.416V304H237.041ZM258.166 255.875H272.041C273.874 255.875 275.499 255.458 276.916 254.625C278.416 253.708 279.624 252.458 280.541 250.875C281.457 249.292 281.916 247.5 281.916 245.5C281.916 243.417 281.457 241.625 280.541 240.125C279.624 238.625 278.416 237.458 276.916 236.625C275.499 235.792 273.874 235.375 272.041 235.375H258.166V255.875ZM359.679 305.25C353.096 305.25 347.013 304.125 341.429 301.875C335.929 299.625 331.138 296.5 327.054 292.5C323.054 288.417 319.929 283.625 317.679 278.125C315.429 272.542 314.304 266.458 314.304 259.875C314.304 253.375 315.429 247.375 317.679 241.875C319.929 236.292 323.054 231.458 327.054 227.375C331.138 223.292 335.929 220.125 341.429 217.875C347.013 215.625 353.096 214.5 359.679 214.5C366.179 214.5 372.179 215.625 377.679 217.875C383.179 220.125 387.929 223.292 391.929 227.375C396.013 231.458 399.179 236.292 401.429 241.875C403.679 247.375 404.804 253.417 404.804 260C404.804 266.5 403.679 272.5 401.429 278C399.179 283.5 396.013 288.292 391.929 292.375C387.929 296.458 383.179 299.625 377.679 301.875C372.179 304.125 366.179 305.25 359.679 305.25ZM359.679 285.125C363.096 285.125 366.221 284.5 369.054 283.25C371.888 282 374.346 280.25 376.429 278C378.596 275.75 380.263 273.083 381.429 270C382.596 266.917 383.179 263.583 383.179 260C383.179 256.333 382.596 252.958 381.429 249.875C380.263 246.792 378.596 244.125 376.429 241.875C374.346 239.542 371.888 237.75 369.054 236.5C366.221 235.25 363.096 234.625 359.679 234.625C356.263 234.625 353.096 235.25 350.179 236.5C347.346 237.75 344.846 239.542 342.679 241.875C340.596 244.125 338.971 246.792 337.804 249.875C336.638 252.958 336.054 256.333 336.054 260C336.054 264.833 337.054 269.167 339.054 273C341.138 276.75 343.929 279.708 347.429 281.875C351.013 284.042 355.096 285.125 359.679 285.125ZM450.125 305.25C441.459 305.25 434.125 303.75 428.125 300.75C422.209 297.667 417.125 293.333 412.875 287.75L425.875 273.125C429.959 278.708 434.084 282.458 438.25 284.375C442.417 286.292 446.709 287.25 451.125 287.25C453.375 287.25 455.375 286.958 457.125 286.375C458.959 285.792 460.375 284.958 461.375 283.875C462.459 282.708 463 281.333 463 279.75C463 278.5 462.667 277.375 462 276.375C461.417 275.375 460.584 274.5 459.5 273.75C458.417 273 457.167 272.333 455.75 271.75C454.334 271.083 452.75 270.542 451 270.125C449.334 269.708 447.625 269.333 445.875 269C441.042 268 436.834 266.708 433.25 265.125C429.75 263.458 426.792 261.5 424.375 259.25C422.042 256.917 420.292 254.292 419.125 251.375C417.959 248.375 417.375 245 417.375 241.25C417.375 235.917 418.875 231.25 421.875 227.25C424.959 223.25 429 220.125 434 217.875C439 215.625 444.417 214.5 450.25 214.5C458.75 214.5 465.584 215.875 470.75 218.625C476 221.292 480.167 225 483.25 229.75L470 242.625C467.417 239.292 464.459 236.792 461.125 235.125C457.875 233.458 454.459 232.625 450.875 232.625C448.459 232.625 446.334 232.917 444.5 233.5C442.667 234.083 441.25 234.958 440.25 236.125C439.334 237.208 438.875 238.542 438.875 240.125C438.875 241.458 439.25 242.667 440 243.75C440.834 244.75 441.959 245.625 443.375 246.375C444.792 247.125 446.417 247.792 448.25 248.375C450.084 248.875 452 249.292 454 249.625C458.584 250.542 462.709 251.75 466.375 253.25C470.125 254.75 473.334 256.625 476 258.875C478.667 261.042 480.709 263.625 482.125 266.625C483.625 269.542 484.375 272.917 484.375 276.75C484.375 282.75 482.917 287.875 480 292.125C477.084 296.375 473.042 299.625 467.875 301.875C462.709 304.125 456.792 305.25 450.125 305.25Z" fill="#06C167"/>
<path d="M44.7788 300.875L44.3047 301.755L44.3103 301.758L44.7788 300.875ZM32.1538 288.875L31.283 289.367L31.2877 289.375L31.2926 289.383L32.1538 288.875ZM30.2788 257.125L31.2098 257.49L31.2122 257.484L30.2788 257.125ZM37.2788 246L36.5716 245.293L36.5621 245.303L37.2788 246ZM48.0288 238.875L48.4067 239.801L48.416 239.797L48.0288 238.875ZM74.4038 238.75L74.0051 239.667L74.0051 239.667L74.4038 238.75ZM84.4038 245.75L85.1308 245.063L84.4038 245.75ZM93.0288 269.75L94.0286 269.773L94.0287 269.767L93.0288 269.75ZM92.9038 275.25V276.25H93.8813L93.9036 275.273L92.9038 275.25ZM40.1538 275.25L39.1869 275.505L39.3834 276.25H40.1538V275.25ZM37.1538 263.875V262.875H35.8559L36.1869 264.13L37.1538 263.875ZM76.5288 263.875L77.2558 264.562L78.8487 262.875H76.5288V263.875ZM74.4038 266.125H73.4038V268.64L75.1308 266.812L74.4038 266.125ZM74.4038 263.625H75.4038V263.585L75.4006 263.545L74.4038 263.625ZM72.4038 258.25L71.5785 258.815L71.5957 258.84L71.6145 258.864L72.4038 258.25ZM68.0288 254.5L67.5648 255.386L67.5732 255.39L67.5816 255.394L68.0288 254.5ZM53.5288 255.125L54.0145 255.999L54.0249 255.993L53.5288 255.125ZM48.4038 260.625L49.3044 261.06L49.3044 261.06L48.4038 260.625ZM48.9038 279.125L48.0259 279.604L48.0314 279.614L48.0372 279.624L48.9038 279.125ZM55.6538 285.5L55.1964 286.389L55.2066 286.394L55.6538 285.5ZM73.7788 286.5L74.1261 287.438L74.1261 287.438L73.7788 286.5ZM81.0288 282.25L81.8451 281.672L81.2421 280.82L80.4166 281.459L81.0288 282.25ZM90.4038 295.5L91.0464 296.266L91.7521 295.674L91.2201 294.922L90.4038 295.5ZM82.1538 301L82.5907 301.9L82.601 301.895L82.6112 301.889L82.1538 301ZM73.1538 304.125L72.9425 303.148L72.9268 303.151L72.9113 303.155L73.1538 304.125ZM64.0288 304.25C56.8298 304.25 50.5793 302.819 45.2473 299.992L44.3103 301.758C49.9783 304.764 56.5612 306.25 64.0288 306.25V304.25ZM45.2529 299.995C39.9897 297.16 35.9183 293.286 33.015 288.367L31.2926 289.383C34.3893 294.63 38.7346 298.756 44.3047 301.755L45.2529 299.995ZM33.0246 288.383C30.2017 283.383 28.7788 277.68 28.7788 271.25H26.7788C26.7788 277.986 28.2726 284.034 31.283 289.367L33.0246 288.383ZM28.7788 271.25C28.7788 266.192 29.5943 261.609 31.2098 257.49L29.3478 256.76C27.6299 261.141 26.7788 265.975 26.7788 271.25H28.7788ZM31.2122 257.484C32.8341 253.267 35.0972 249.676 37.9955 246.697L36.5621 245.303C33.4605 248.49 31.0568 252.317 29.3455 256.766L31.2122 257.484ZM37.9859 246.707C40.9741 243.719 44.4451 241.418 48.4067 239.801L47.6509 237.949C43.4458 239.666 39.7502 242.114 36.5717 245.293L37.9859 246.707ZM48.416 239.797C52.4497 238.103 56.8583 237.25 61.6538 237.25V235.25C56.6159 235.25 51.9413 236.147 47.6416 237.953L48.416 239.797ZM61.6538 237.25C66.1993 237.25 70.3115 238.061 74.0051 239.667L74.8025 237.833C70.8295 236.106 66.4417 235.25 61.6538 235.25V237.25ZM74.0051 239.667C77.7162 241.281 80.9374 243.536 83.6768 246.437L85.1308 245.063C82.2035 241.964 78.7581 239.553 74.8025 237.833L74.0051 239.667ZM83.6768 246.437C86.4122 249.333 88.5093 252.757 89.9651 256.72L91.8425 256.03C90.2984 251.827 88.0621 248.167 85.1308 245.063L83.6768 246.437ZM89.9651 256.72C91.4181 260.675 92.1104 265.009 92.029 269.733L94.0287 269.767C94.1139 264.824 93.3895 260.242 91.8425 256.03L89.9651 256.72ZM92.0291 269.727L91.9041 275.227L93.9036 275.273L94.0286 269.773L92.0291 269.727ZM92.9038 274.25H40.1538V276.25H92.9038V274.25ZM41.1207 274.995L38.1207 263.62L36.1869 264.13L39.1869 275.505L41.1207 274.995ZM37.1538 264.875H76.5288V262.875H37.1538V264.875ZM75.8018 263.188L73.6768 265.438L75.1308 266.812L77.2558 264.562L75.8018 263.188ZM75.4038 266.125V263.625H73.4038V266.125H75.4038ZM75.4006 263.545C75.22 261.288 74.4915 259.305 73.1932 257.636L71.6145 258.864C72.6495 260.195 73.2543 261.796 73.407 263.705L75.4006 263.545ZM73.2291 257.685C72.0433 255.952 70.4506 254.593 68.476 253.606L67.5816 255.394C69.2737 256.24 70.5977 257.381 71.5785 258.815L73.2291 257.685ZM68.4928 253.614C66.5808 252.613 64.4178 252.125 62.0288 252.125V254.125C64.1398 254.125 65.9768 254.554 67.5648 255.386L68.4928 253.614ZM62.0288 252.125C58.5628 252.125 55.5494 252.819 53.0327 254.257L54.0249 255.993C56.1749 254.765 58.8281 254.125 62.0288 254.125V252.125ZM53.0432 254.251C50.6049 255.605 48.7555 257.596 47.5033 260.19L49.3044 261.06C50.3854 258.82 51.9528 257.145 54.0145 255.999L53.0432 254.251ZM47.5033 260.19C46.253 262.78 45.6538 265.939 45.6538 269.625H47.6538C47.6538 266.144 48.2213 263.303 49.3044 261.06L47.5033 260.19ZM45.6538 269.625C45.6538 273.351 46.4349 276.687 48.0259 279.604L49.7817 278.646C48.3727 276.063 47.6538 273.065 47.6538 269.625H45.6538ZM48.0372 279.624C49.7199 282.547 52.1147 284.804 55.1965 286.389L56.1112 284.611C53.3596 283.196 51.2544 281.203 49.7704 278.626L48.0372 279.624ZM55.2066 286.394C58.3724 287.977 62.0735 288.75 66.2788 288.75V286.75C62.3175 286.75 58.9352 286.023 56.101 284.606L55.2066 286.394ZM66.2788 288.75C69.1303 288.75 71.75 288.318 74.1261 287.438L73.4315 285.562C71.3076 286.349 68.9274 286.75 66.2788 286.75V288.75ZM74.1261 287.438C76.4988 286.559 79.0043 285.082 81.641 283.041L80.4166 281.459C77.8867 283.418 75.5589 284.774 73.4315 285.562L74.1261 287.438ZM80.2125 282.828L89.5875 296.078L91.2201 294.922L81.8451 281.672L80.2125 282.828ZM89.7612 294.734C87.2332 296.854 84.5452 298.646 81.6965 300.111L82.6112 301.889C85.5958 300.354 88.4077 298.479 91.0464 296.266L89.7612 294.734ZM81.7169 300.1C78.87 301.483 75.9456 302.498 72.9425 303.148L73.3651 305.102C76.5287 304.418 79.6042 303.35 82.5907 301.9L81.7169 300.1ZM72.9113 303.155C69.9904 303.885 67.0301 304.25 64.0288 304.25V306.25C67.1941 306.25 70.3173 305.865 73.3963 305.095L72.9113 303.155ZM111.268 304H110.268V305H111.268V304ZM111.268 220.875V219.875H110.268V220.875H111.268ZM131.393 220.875H132.393V219.875H131.393V220.875ZM131.393 304V305H132.393V304H131.393ZM99.5181 255.25H98.5181V256.25H99.5181V255.25ZM99.5181 237.625V236.625H98.5181V237.625H99.5181ZM144.143 237.625H145.143V236.625H144.143V237.625ZM144.143 255.25V256.25H145.143V255.25H144.143ZM112.268 304V220.875H110.268V304H112.268ZM111.268 221.875H131.393V219.875H111.268V221.875ZM130.393 220.875V304H132.393V220.875H130.393ZM131.393 303H111.268V305H131.393V303ZM100.518 255.25V237.625H98.5181V255.25H100.518ZM99.5181 238.625H144.143V236.625H99.5181V238.625ZM143.143 237.625V255.25H145.143V237.625H143.143ZM144.143 254.25H99.5181V256.25H144.143V254.25ZM167.834 300.875L167.35 301.75L167.36 301.755L167.834 300.875ZM155.084 288.625L154.222 289.131L154.226 289.137L155.084 288.625ZM155.084 253L155.943 253.512L155.947 253.506L155.084 253ZM167.834 240.75L168.309 241.631L168.319 241.625L167.834 240.75ZM204.584 240.75L204.094 241.622L204.102 241.626L204.11 241.63L204.584 240.75ZM217.334 253L216.472 253.506L216.476 253.512L217.334 253ZM217.334 288.625L218.193 289.137L218.197 289.131L217.334 288.625ZM204.584 300.875L205.064 301.752L205.069 301.75L204.584 300.875ZM194.084 285.75L193.544 284.909L193.537 284.913L193.53 284.918L194.084 285.75ZM201.459 270.875L200.46 270.851L200.459 270.876L200.46 270.901L201.459 270.875ZM199.584 261.875L198.69 262.322L198.696 262.334L199.584 261.875ZM194.084 255.75L193.53 256.582L193.547 256.594L193.565 256.605L194.084 255.75ZM178.334 255.75L178.875 256.591L178.875 256.591L178.334 255.75ZM172.834 261.875L173.723 262.334L173.723 262.334L172.834 261.875ZM178.334 285.75L177.794 286.591L177.794 286.591L178.334 285.75ZM186.209 304.25C179.523 304.25 173.564 302.824 168.309 299.995L167.36 301.755C172.938 304.759 179.229 306.25 186.209 306.25V304.25ZM168.319 300C163.052 297.083 158.933 293.123 155.943 288.113L154.226 289.137C157.402 294.46 161.783 298.667 167.35 301.75L168.319 300ZM155.947 288.119C152.961 283.035 151.459 277.295 151.459 270.875H149.459C149.459 277.621 151.041 283.715 154.222 289.131L155.947 288.119ZM151.459 270.875C151.459 264.283 152.963 258.506 155.943 253.512L154.226 252.488C151.039 257.827 149.459 263.967 149.459 270.875H151.459ZM155.947 253.506C158.936 248.416 163.051 244.461 168.309 241.63L167.36 239.87C161.784 242.872 157.399 247.084 154.222 252.494L155.947 253.506ZM168.319 241.625C173.572 238.715 179.528 237.25 186.209 237.25V235.25C179.225 235.25 172.93 236.785 167.35 239.875L168.319 241.625ZM186.209 237.25C192.977 237.25 198.929 238.716 204.094 241.622L205.075 239.878C199.573 236.784 193.275 235.25 186.209 235.25V237.25ZM204.11 241.63C209.368 244.461 213.483 248.416 216.472 253.506L218.197 252.494C215.02 247.084 210.635 242.872 205.059 239.87L204.11 241.63ZM216.476 253.512C219.456 258.506 220.959 264.283 220.959 270.875H222.959C222.959 263.967 221.38 257.827 218.193 252.488L216.476 253.512ZM220.959 270.875C220.959 277.295 219.458 283.035 216.472 288.119L218.197 289.131C221.378 283.715 222.959 277.621 222.959 270.875H220.959ZM216.476 288.113C213.486 293.123 209.367 297.083 204.1 300L205.069 301.75C210.635 298.667 215.017 294.46 218.193 289.137L216.476 288.113ZM204.105 299.998C198.938 302.823 192.982 304.25 186.209 304.25V306.25C193.27 306.25 199.565 304.76 205.064 301.752L204.105 299.998ZM186.209 289C189.384 289 192.207 288.203 194.639 286.582L193.53 284.918C191.462 286.297 189.034 287 186.209 287V289ZM194.625 286.591C197.113 284.992 199.063 282.815 200.473 280.084L198.696 279.166C197.439 281.602 195.722 283.508 193.544 284.909L194.625 286.591ZM200.473 280.084C201.892 277.334 202.546 274.247 202.459 270.849L200.46 270.901C200.539 274.003 199.943 276.75 198.696 279.166L200.473 280.084ZM202.459 270.899C202.546 267.344 201.896 264.173 200.473 261.416L198.696 262.334C199.94 264.744 200.54 267.572 200.46 270.851L202.459 270.899ZM200.479 261.428C199.069 258.609 197.113 256.419 194.603 254.895L193.565 256.605C195.723 257.915 197.433 259.808 198.69 262.322L200.479 261.428ZM194.639 254.918C192.207 253.297 189.384 252.5 186.209 252.5V254.5C189.034 254.5 191.462 255.203 193.53 256.582L194.639 254.918ZM186.209 252.5C183.111 252.5 180.297 253.3 177.794 254.909L178.875 256.591C181.039 255.2 183.474 254.5 186.209 254.5V252.5ZM177.794 254.909C175.306 256.508 173.356 258.685 171.946 261.416L173.723 262.334C174.98 259.898 176.697 257.992 178.875 256.591L177.794 254.909ZM171.946 261.416C170.528 264.164 169.834 267.327 169.834 270.875H171.834C171.834 267.59 172.475 264.752 173.723 262.334L171.946 261.416ZM169.834 270.875C169.834 274.266 170.531 277.342 171.946 280.084L173.723 279.166C172.471 276.741 171.834 273.984 171.834 270.875H169.834ZM171.946 280.084C173.356 282.815 175.306 284.992 177.794 286.591L178.875 284.909C176.697 283.508 174.98 281.602 173.723 279.166L171.946 280.084ZM177.794 286.591C180.297 288.2 183.111 289 186.209 289V287C183.474 287 181.039 286.3 178.875 284.909L177.794 286.591ZM237.041 304H236.041V305H237.041V304ZM237.041 216.5V215.5H236.041V216.5H237.041ZM289.666 220.25L289.166 221.116L289.166 221.116L289.666 220.25ZM299.916 230.5L299.049 231L299.054 231.007L299.916 230.5ZM299.916 260.25L300.79 260.736L300.79 260.736L299.916 260.25ZM289.666 270.875L289.153 270.016L289.153 270.016L289.666 270.875ZM258.416 274.75V273.75H257.416V274.75H258.416ZM258.416 304V305H259.416V304H258.416ZM258.166 255.875H257.166V256.875H258.166V255.875ZM276.916 254.625L277.423 255.487L277.43 255.483L277.437 255.478L276.916 254.625ZM280.541 250.875L281.406 251.376L281.406 251.376L280.541 250.875ZM280.541 240.125L281.394 239.604L281.394 239.604L280.541 240.125ZM276.916 236.625L276.409 237.487L276.419 237.493L276.43 237.499L276.916 236.625ZM258.166 235.375V234.375H257.166V235.375H258.166ZM238.041 304V216.5H236.041V304H238.041ZM237.041 217.5H274.916V215.5H237.041V217.5ZM274.916 217.5C280.258 217.5 284.999 218.712 289.166 221.116L290.165 219.384C285.665 216.788 280.573 215.5 274.916 215.5V217.5ZM289.166 221.116C293.347 223.528 296.637 226.819 299.049 231L300.782 230C298.194 225.515 294.651 221.972 290.165 219.384L289.166 221.116ZM299.054 231.007C301.453 235.086 302.666 239.782 302.666 245.125H304.666C304.666 239.468 303.378 234.414 300.777 229.993L299.054 231.007ZM302.666 245.125C302.666 250.553 301.452 255.425 299.041 259.764L300.79 260.736C303.379 256.075 304.666 250.863 304.666 245.125H302.666ZM299.041 259.764C296.625 264.113 293.332 267.525 289.153 270.016L290.178 271.734C294.666 269.058 298.206 265.387 300.79 260.736L299.041 259.764ZM289.153 270.016C284.989 272.499 280.252 273.75 274.916 273.75V275.75C280.579 275.75 285.676 274.418 290.178 271.734L289.153 270.016ZM274.916 273.75H258.416V275.75H274.916V273.75ZM257.416 274.75V304H259.416V274.75H257.416ZM258.416 303H237.041V305H258.416V303ZM258.166 256.875H272.041V254.875H258.166V256.875ZM272.041 256.875C274.031 256.875 275.835 256.421 277.423 255.487L276.409 253.763C275.163 254.496 273.717 254.875 272.041 254.875V256.875ZM277.437 255.478C279.085 254.471 280.409 253.098 281.406 251.376L279.675 250.374C278.838 251.819 277.746 252.946 276.394 253.772L277.437 255.478ZM281.406 251.376C282.419 249.626 282.916 247.659 282.916 245.5H280.916C280.916 247.341 280.496 248.957 279.675 250.374L281.406 251.376ZM282.916 245.5C282.916 243.267 282.423 241.288 281.394 239.604L279.687 240.646C280.491 241.962 280.916 243.566 280.916 245.5H282.916ZM281.394 239.604C280.389 237.96 279.056 236.67 277.401 235.751L276.43 237.499C277.775 238.247 278.858 239.29 279.687 240.646L281.394 239.604ZM277.423 235.763C275.835 234.829 274.031 234.375 272.041 234.375V236.375C273.717 236.375 275.163 236.754 276.409 237.487L277.423 235.763ZM272.041 234.375H258.166V236.375H272.041V234.375ZM257.166 235.375V255.875H259.166V235.375H257.166ZM341.429 301.875L341.051 302.801L341.055 302.803L341.429 301.875ZM327.054 292.5L326.34 293.2L326.347 293.207L326.354 293.214L327.054 292.5ZM317.679 278.125L316.752 278.499L316.754 278.504L317.679 278.125ZM317.679 241.875L318.605 242.254L318.607 242.249L317.679 241.875ZM327.054 227.375L326.347 226.668L326.34 226.675L327.054 227.375ZM341.429 217.875L341.055 216.947L341.051 216.949L341.429 217.875ZM377.679 217.875L377.301 218.801L377.301 218.801L377.679 217.875ZM391.929 227.375L391.215 228.075L391.222 228.082L391.929 227.375ZM401.429 241.875L400.502 242.249L400.504 242.254L401.429 241.875ZM401.429 278L400.504 277.621L400.504 277.621L401.429 278ZM391.929 292.375L391.222 291.668L391.215 291.675L391.929 292.375ZM377.679 301.875L377.301 300.949L377.301 300.949L377.679 301.875ZM369.054 283.25L369.458 284.165L369.054 283.25ZM376.429 278L375.709 277.306L375.702 277.313L375.695 277.321L376.429 278ZM376.429 241.875L375.683 242.541L375.696 242.555L375.709 242.569L376.429 241.875ZM369.054 236.5L369.458 235.585L369.054 236.5ZM350.179 236.5L349.785 235.581L349.776 235.585L350.179 236.5ZM342.679 241.875L341.946 241.195L341.945 241.196L342.679 241.875ZM339.054 273L338.168 273.463L338.174 273.474L338.18 273.486L339.054 273ZM347.429 281.875L346.903 282.725L346.912 282.731L347.429 281.875ZM359.679 304.25C353.212 304.25 347.257 303.145 341.803 300.947L341.055 302.803C346.768 305.105 352.98 306.25 359.679 306.25V304.25ZM341.808 300.949C336.423 298.746 331.741 295.692 327.754 291.786L326.354 293.214C330.534 297.308 335.436 300.504 341.051 302.801L341.808 300.949ZM327.769 291.8C323.863 287.813 320.808 283.131 318.605 277.746L316.754 278.504C319.051 284.119 322.246 289.02 326.34 293.2L327.769 291.8ZM318.607 277.751C316.409 272.297 315.304 266.342 315.304 259.875H313.304C313.304 266.574 314.45 272.786 316.752 278.499L318.607 277.751ZM315.304 259.875C315.304 253.493 316.408 247.623 318.605 242.254L316.754 241.496C314.45 247.127 313.304 253.257 313.304 259.875H315.304ZM318.607 242.249C320.81 236.78 323.865 232.06 327.769 228.075L326.34 226.675C322.243 230.857 319.048 235.803 316.752 241.501L318.607 242.249ZM327.761 228.082C331.748 224.095 336.427 221.002 341.808 218.801L341.051 216.949C335.431 219.248 330.527 222.488 326.347 226.668L327.761 228.082ZM341.803 218.803C347.257 216.605 353.212 215.5 359.679 215.5V213.5C352.98 213.5 346.768 214.645 341.055 216.947L341.803 218.803ZM359.679 215.5C366.062 215.5 371.932 216.604 377.301 218.801L378.058 216.949C372.427 214.646 366.297 213.5 359.679 213.5V215.5ZM377.301 218.801C382.68 221.001 387.314 224.093 391.215 228.075L392.644 226.675C388.544 222.491 383.679 219.249 378.058 216.949L377.301 218.801ZM391.222 228.082C395.206 232.066 398.3 236.785 400.502 242.249L402.357 241.501C400.059 235.798 396.819 230.85 392.636 226.668L391.222 228.082ZM400.504 242.254C402.699 247.621 403.804 253.532 403.804 260H405.804C405.804 253.301 404.659 247.129 402.355 241.496L400.504 242.254ZM403.804 260C403.804 266.382 402.7 272.252 400.504 277.621L402.355 278.379C404.658 272.748 405.804 266.618 405.804 260H403.804ZM400.504 277.621C398.302 283.002 395.209 287.681 391.222 291.668L392.636 293.082C396.816 288.902 400.056 283.998 402.355 278.379L400.504 277.621ZM391.215 291.675C387.314 295.657 382.68 298.749 377.301 300.949L378.058 302.801C383.679 300.501 388.544 297.259 392.644 293.075L391.215 291.675ZM377.301 300.949C371.932 303.146 366.062 304.25 359.679 304.25V306.25C366.297 306.25 372.427 305.104 378.058 302.801L377.301 300.949ZM359.679 286.125C363.22 286.125 366.485 285.477 369.458 284.165L368.651 282.335C365.957 283.523 362.971 284.125 359.679 284.125V286.125ZM369.458 284.165C372.415 282.86 374.986 281.031 377.163 278.679L375.695 277.321C373.706 279.469 371.36 281.14 368.651 282.335L369.458 284.165ZM377.15 278.694C379.415 276.341 381.153 273.557 382.364 270.354L380.494 269.646C379.372 272.61 377.776 275.159 375.709 277.306L377.15 278.694ZM382.364 270.354C383.578 267.148 384.179 263.694 384.179 260H382.179C382.179 263.473 381.614 266.685 380.494 269.646L382.364 270.354ZM384.179 260C384.179 256.226 383.578 252.73 382.364 249.521L380.494 250.229C381.613 253.187 382.179 256.441 382.179 260H384.179ZM382.364 249.521C381.153 246.318 379.415 243.534 377.15 241.181L375.709 242.569C377.776 244.716 379.372 247.265 380.494 250.229L382.364 249.521ZM377.175 241.209C374.998 238.77 372.423 236.893 369.458 235.585L368.651 237.415C371.352 238.607 373.694 240.313 375.683 242.541L377.175 241.209ZM369.458 235.585C366.485 234.273 363.22 233.625 359.679 233.625V235.625C362.971 235.625 365.957 236.227 368.651 237.415L369.458 235.585ZM359.679 233.625C356.138 233.625 352.836 234.274 349.785 235.581L350.573 237.419C353.356 236.226 356.387 235.625 359.679 235.625V233.625ZM349.776 235.585C346.814 236.892 344.203 238.764 341.946 241.195L343.412 242.555C345.489 240.319 347.878 238.608 350.583 237.415L349.776 235.585ZM341.945 241.196C339.768 243.547 338.078 246.326 336.869 249.521L338.739 250.229C339.864 247.257 341.424 244.703 343.413 242.554L341.945 241.196ZM336.869 249.521C335.655 252.73 335.054 256.226 335.054 260H337.054C337.054 256.441 337.62 253.187 338.739 250.229L336.869 249.521ZM335.054 260C335.054 264.975 336.085 269.47 338.168 273.463L339.941 272.537C338.024 268.863 337.054 264.692 337.054 260H335.054ZM338.18 273.486C340.343 277.378 343.251 280.465 346.903 282.725L347.956 281.025C344.607 278.952 341.932 276.122 339.928 272.514L338.18 273.486ZM346.912 282.731C350.666 285.001 354.931 286.125 359.679 286.125V284.125C355.26 284.125 351.359 283.083 347.947 281.019L346.912 282.731ZM428.125 300.75L427.663 301.637L427.671 301.641L427.678 301.644L428.125 300.75ZM412.875 287.75L412.128 287.086L411.581 287.701L412.08 288.356L412.875 287.75ZM425.875 273.125L426.683 272.535L425.951 271.535L425.128 272.461L425.875 273.125ZM457.125 286.375L456.822 285.422L456.809 285.426L457.125 286.375ZM461.375 283.875L460.643 283.195L460.641 283.197L461.375 283.875ZM462 276.375L461.137 276.879L461.152 276.905L461.168 276.93L462 276.375ZM459.5 273.75L458.931 274.572L458.931 274.572L459.5 273.75ZM455.75 271.75L455.325 272.655L455.347 272.665L455.37 272.675L455.75 271.75ZM451 270.125L450.758 271.095L450.769 271.098L451 270.125ZM445.875 269L445.673 269.979L445.681 269.981L445.688 269.982L445.875 269ZM433.25 265.125L432.821 266.028L432.833 266.034L432.846 266.04L433.25 265.125ZM424.375 259.25L423.668 259.957L423.681 259.97L423.694 259.982L424.375 259.25ZM419.125 251.375L418.193 251.737L418.197 251.746L419.125 251.375ZM421.875 227.25L421.083 226.639L421.075 226.65L421.875 227.25ZM434 217.875L434.411 218.787L434.411 218.787L434 217.875ZM470.75 218.625L470.281 219.508L470.289 219.512L470.298 219.517L470.75 218.625ZM483.25 229.75L483.947 230.467L484.537 229.895L484.089 229.206L483.25 229.75ZM470 242.625L469.21 243.238L469.895 244.122L470.697 243.342L470 242.625ZM461.125 235.125L460.669 236.015L460.678 236.019L461.125 235.125ZM444.5 233.5L444.804 234.453L444.804 234.453L444.5 233.5ZM440.25 236.125L439.491 235.474L439.487 235.479L440.25 236.125ZM440 243.75L439.178 244.319L439.204 244.356L439.232 244.39L440 243.75ZM443.375 246.375L442.908 247.259L442.908 247.259L443.375 246.375ZM448.25 248.375L447.947 249.328L447.967 249.334L447.987 249.34L448.25 248.375ZM454 249.625L454.197 248.644L454.181 248.641L454.165 248.639L454 249.625ZM466.375 253.25L465.997 254.176L466.004 254.178L466.375 253.25ZM476 258.875L475.356 259.639L475.363 259.645L475.37 259.651L476 258.875ZM482.125 266.625L481.221 267.052L481.228 267.067L481.236 267.082L482.125 266.625ZM480 292.125L479.176 291.559L479.176 291.559L480 292.125ZM467.875 301.875L467.476 300.958L467.476 300.958L467.875 301.875ZM450.125 304.25C441.57 304.25 434.399 302.769 428.573 299.856L427.678 301.644C433.852 304.731 441.347 306.25 450.125 306.25V304.25ZM428.588 299.863C422.808 296.851 417.837 292.617 413.671 287.144L412.08 288.356C416.414 294.05 421.609 298.482 427.663 301.637L428.588 299.863ZM413.623 288.414L426.623 273.789L425.128 272.461L412.128 287.086L413.623 288.414ZM425.068 273.715C429.205 279.372 433.452 283.268 437.833 285.283L438.668 283.467C434.716 281.648 430.713 278.045 426.683 272.535L425.068 273.715ZM437.833 285.283C442.125 287.258 446.559 288.25 451.125 288.25V286.25C446.859 286.25 442.709 285.325 438.668 283.467L437.833 285.283ZM451.125 288.25C453.46 288.25 455.57 287.948 457.442 287.324L456.809 285.426C455.181 285.969 453.291 286.25 451.125 286.25V288.25ZM457.429 287.328C459.378 286.708 460.962 285.797 462.11 284.553L460.641 283.197C459.789 284.12 458.539 284.876 456.822 285.422L457.429 287.328ZM462.108 284.555C463.362 283.205 464 281.587 464 279.75H462C462 281.079 461.555 282.212 460.643 283.195L462.108 284.555ZM464 279.75C464 278.311 463.613 276.991 462.833 275.82L461.168 276.93C461.721 277.759 462 278.689 462 279.75H464ZM462.864 275.871C462.198 274.728 461.257 273.75 460.07 272.928L458.931 274.572C459.911 275.25 460.637 276.022 461.137 276.879L462.864 275.871ZM460.07 272.928C458.919 272.131 457.604 271.432 456.131 270.825L455.37 272.675C456.731 273.235 457.916 273.869 458.931 274.572L460.07 272.928ZM456.176 270.845C454.689 270.145 453.039 269.582 451.232 269.152L450.769 271.098C452.462 271.501 453.979 272.021 455.325 272.655L456.176 270.845ZM451.243 269.155C449.557 268.733 447.831 268.354 446.063 268.018L445.688 269.982C447.42 270.312 449.11 270.683 450.758 271.095L451.243 269.155ZM446.078 268.021C441.297 267.032 437.159 265.759 433.655 264.21L432.846 266.04C436.509 267.658 440.787 268.968 445.673 269.979L446.078 268.021ZM433.68 264.222C430.257 262.592 427.387 260.688 425.057 258.518L423.694 259.982C426.197 262.312 429.244 264.325 432.821 266.028L433.68 264.222ZM425.083 258.543C422.84 256.3 421.168 253.788 420.054 251.004L418.197 251.746C419.416 254.795 421.244 257.533 423.668 259.957L425.083 258.543ZM420.057 251.013C418.943 248.145 418.375 244.896 418.375 241.25H416.375C416.375 245.104 416.975 248.605 418.193 251.737L420.057 251.013ZM418.375 241.25C418.375 236.118 419.814 231.665 422.675 227.85L421.075 226.65C417.937 230.835 416.375 235.716 416.375 241.25H418.375ZM422.667 227.861C425.642 224.002 429.548 220.975 434.411 218.787L433.59 216.963C428.453 219.275 424.276 222.498 421.083 226.639L422.667 227.861ZM434.411 218.787C439.274 216.599 444.549 215.5 450.25 215.5V213.5C444.285 213.5 438.727 214.651 433.59 216.963L434.411 218.787ZM450.25 215.5C458.656 215.5 465.309 216.862 470.281 219.508L471.22 217.742C465.858 214.888 458.845 213.5 450.25 213.5V215.5ZM470.298 219.517C475.397 222.107 479.428 225.698 482.412 230.294L484.089 229.206C480.906 224.302 476.604 220.476 471.203 217.733L470.298 219.517ZM482.554 229.033L469.304 241.908L470.697 243.342L483.947 230.467L482.554 229.033ZM470.791 242.012C468.128 238.576 465.057 235.973 461.573 234.231L460.678 236.019C463.861 237.611 466.706 240.007 469.21 243.238L470.791 242.012ZM461.582 234.235C458.193 232.498 454.621 231.625 450.875 231.625V233.625C454.297 233.625 457.558 234.419 460.669 236.015L461.582 234.235ZM450.875 231.625C448.381 231.625 446.15 231.926 444.197 232.547L444.804 234.453C446.518 233.908 448.537 233.625 450.875 233.625V231.625ZM444.197 232.547C442.231 233.173 440.639 234.135 439.491 235.474L441.01 236.776C441.862 235.782 443.103 234.994 444.804 234.453L444.197 232.547ZM439.487 235.479C438.4 236.764 437.875 238.334 437.875 240.125H439.875C439.875 238.749 440.268 237.653 441.014 236.771L439.487 235.479ZM437.875 240.125C437.875 241.659 438.311 243.067 439.178 244.319L440.823 243.181C440.19 242.267 439.875 241.258 439.875 240.125H437.875ZM439.232 244.39C440.166 245.51 441.402 246.462 442.908 247.259L443.843 245.491C442.516 244.788 441.502 243.99 440.769 243.11L439.232 244.39ZM442.908 247.259C444.386 248.042 446.068 248.73 447.947 249.328L448.554 247.422C446.766 246.853 445.198 246.208 443.843 245.491L442.908 247.259ZM447.987 249.34C449.855 249.849 451.805 250.273 453.836 250.611L454.165 248.639C452.196 248.31 450.312 247.901 448.514 247.41L447.987 249.34ZM453.804 250.606C458.336 251.512 462.399 252.704 465.997 254.176L466.754 252.324C463.019 250.796 458.832 249.571 454.197 248.644L453.804 250.606ZM466.004 254.178C469.67 255.645 472.782 257.468 475.356 259.639L476.645 258.111C473.885 255.782 470.581 253.855 466.747 252.322L466.004 254.178ZM475.37 259.651C477.925 261.727 479.871 264.192 481.221 267.052L483.03 266.198C481.547 263.058 479.41 260.357 476.631 258.099L475.37 259.651ZM481.236 267.082C482.652 269.835 483.375 273.049 483.375 276.75H485.375C485.375 272.784 484.599 269.248 483.015 266.168L481.236 267.082ZM483.375 276.75C483.375 282.582 481.96 287.502 479.176 291.559L480.825 292.691C483.874 288.248 485.375 282.918 485.375 276.75H483.375ZM479.176 291.559C476.375 295.64 472.488 298.776 467.476 300.958L468.275 302.792C473.597 300.474 477.792 297.11 480.825 292.691L479.176 291.559ZM467.476 300.958C462.456 303.144 456.68 304.25 450.125 304.25V306.25C456.905 306.25 462.961 305.106 468.275 302.792L467.476 300.958Z" fill="black"/>
</svg>
